<svg width="29" height="20" viewBox="0 0 29 20" fill="none" xmlns="http://www.w3.org/2000/svg">
<path d="M7.01805 20C4.79226 20 3.06614 19.2477 1.83968 17.7429C0.613228 16.1964 0 14.1693 0 11.6614C0 8.65204 0.999334 6.01881 2.998 3.76176C5.0421 1.5047 8.19909 0.250783 12.469 0V4.38871C10.334 4.47231 8.6079 4.97388 7.2906 5.89342C6.01872 6.81296 5.26922 8.06688 5.0421 9.65517C4.99667 10.1985 4.99667 10.7837 5.0421 11.4107C5.72346 10.4911 6.83636 10.0314 8.38078 10.0314C9.60724 10.0314 10.6747 10.4702 11.5832 11.348C12.4917 12.2257 12.9459 13.396 12.9459 14.8589C12.9459 16.3636 12.4008 17.5967 11.3106 18.558C10.2205 19.5193 8.7896 20 7.01805 20Z" fill="#231F2F"/>
<path d="M22.5317 20C20.3059 20 18.5798 19.2477 17.3534 17.7429C16.1269 16.1964 15.5137 14.1693 15.5137 11.6614C15.5137 8.65204 16.513 6.01881 18.5117 3.76176C20.5558 1.5047 23.7128 0.250783 27.9826 0V4.38871C25.8477 4.47231 24.1216 4.97388 22.8043 5.89342C21.5324 6.81296 20.7829 8.06688 20.5558 9.65517C20.5103 10.1985 20.5103 10.7837 20.5558 11.4107C21.2371 10.4911 22.35 10.0314 23.8945 10.0314C25.1209 10.0314 26.1884 10.4702 27.0969 11.348C28.0054 12.2257 28.4596 13.396 28.4596 14.8589C28.4596 16.3636 27.9145 17.5967 26.8243 18.558C25.7341 19.5193 24.3033 20 22.5317 20Z" fill="#231F2F"/>
</svg>
